<svg width="100" height="100" viewBox="0 0 100 100" fill="none" xmlns="http://www.w3.org/2000/svg">
<path d="M91.6667 50C91.6667 27.0417 72.9583 8.33337 50 8.33337C27.0416 8.33337 8.33331 27.0417 8.33331 50C8.33331 62.0834 13.5416 72.9584 21.7916 80.5834C21.7916 80.625 21.7916 80.625 21.75 80.6667C22.1666 81.0834 22.6666 81.4167 23.0833 81.7917C23.3333 82 23.5416 82.2084 23.7916 82.375C24.5416 83 25.375 83.5834 26.1666 84.1667C26.4583 84.3751 26.7083 84.5417 27 84.75C27.7916 85.2917 28.625 85.7917 29.5 86.2501C29.7916 86.4167 30.125 86.625 30.4166 86.7917C31.25 87.25 32.125 87.6667 33.0416 88.0417C33.375 88.2084 33.7083 88.375 34.0416 88.5C34.9583 88.875 35.875 89.2084 36.7916 89.5C37.125 89.625 37.4583 89.75 37.7916 89.8334C38.7916 90.125 39.7916 90.375 40.7916 90.625C41.0833 90.7084 41.375 90.7917 41.7083 90.8334C42.875 91.0834 44.0416 91.25 45.25 91.375C45.4166 91.375 45.5833 91.4167 45.75 91.4584C47.1666 91.5834 48.5833 91.6667 50 91.6667C51.4166 91.6667 52.8333 91.5834 54.2083 91.4584C54.375 91.4584 54.5416 91.4167 54.7083 91.375C55.9166 91.25 57.0833 91.0834 58.25 90.8334C58.5416 90.7917 58.8333 90.6667 59.1666 90.625C60.1666 90.375 61.2083 90.1667 62.1666 89.8334C62.5 89.7084 62.8333 89.5834 63.1666 89.5C64.0833 89.1667 65.0416 88.875 65.9166 88.5C66.25 88.375 66.5833 88.2084 66.9166 88.0417C67.7916 87.6667 68.6667 87.25 69.5417 86.7917C69.875 86.625 70.1666 86.4167 70.4583 86.2501C71.2916 85.7501 72.125 85.2917 72.9583 84.75C73.25 84.5834 73.5 84.3751 73.7916 84.1667C74.625 83.5834 75.4167 83 76.1667 82.375C76.4167 82.1667 76.625 81.9584 76.875 81.7917C77.3333 81.4167 77.7917 81.0417 78.2083 80.6667C78.2083 80.625 78.2083 80.625 78.1666 80.5834C86.4583 72.9584 91.6667 62.0834 91.6667 50ZM70.5833 70.7084C59.2917 63.125 40.7916 63.125 29.4166 70.7084C27.5833 71.9167 26.0833 73.3334 24.8333 74.875C18.5 68.4584 14.5833 59.6667 14.5833 50C14.5833 30.4584 30.4583 14.5834 50 14.5834C69.5417 14.5834 85.4166 30.4584 85.4166 50C85.4166 59.6667 81.5 68.4584 75.1667 74.875C73.9583 73.3334 72.4167 71.9167 70.5833 70.7084Z" fill="#171717"/>
<path d="M50 28.875C41.375 28.875 34.375 35.875 34.375 44.5C34.375 52.9583 41 59.8333 49.7917 60.0833C49.9167 60.0833 50.0833 60.0833 50.1667 60.0833C50.25 60.0833 50.375 60.0833 50.4583 60.0833C50.5 60.0833 50.5417 60.0833 50.5417 60.0833C58.9583 59.7917 65.5833 52.9583 65.625 44.5C65.625 35.875 58.625 28.875 50 28.875Z" fill="#171717"/>
</svg>
