<svg width="380" height="98" viewBox="0 0 380 98" fill="none" xmlns="http://www.w3.org/2000/svg">
<path d="M0.973877 96.0677V0.770508H39.307C46.2418 0.770508 51.8473 1.91179 56.1223 4.19437C60.492 6.47694 63.675 9.42534 65.67 13.0393C67.7597 16.5584 68.8051 20.3626 68.8051 24.4522C68.8051 28.2566 67.95 32.0132 66.24 35.7222C64.53 39.4314 62.0595 42.6657 58.8299 45.4231C63.5792 47.8963 67.095 51.2722 69.3751 55.552C71.7497 59.7371 72.9376 64.1117 72.9376 68.6768C72.9376 73.242 71.7497 77.6176 69.3751 81.8016C67.095 85.9867 63.6271 89.4106 58.9724 92.0732C54.3166 94.7369 48.5218 96.0677 41.5871 96.0677H0.973877ZM14.3691 41.5713H40.7321C45.5772 41.5713 49.1865 40.0499 51.5623 37.0061C54.0316 33.963 55.2673 30.6342 55.2673 27.0201C55.2673 24.5474 54.6973 22.1696 53.5573 19.8871C52.5119 17.6045 50.8965 15.7499 48.7122 14.3233C46.6214 12.8016 43.9618 12.0407 40.7321 12.0407H14.3691V41.5713ZM14.3691 84.7975H43.0121C46.5268 84.7975 49.4715 83.9895 51.8473 82.3723C54.2219 80.7562 56.0266 78.711 57.2623 76.2378C58.497 73.67 59.1149 71.0073 59.1149 68.2488C59.1149 65.4915 58.497 62.9236 57.2623 60.5452C56.1223 58.0731 54.3166 56.0759 51.8473 54.5534C49.4715 52.9373 46.4789 52.1282 42.8696 52.1282H14.3691V84.7975ZM105.021 96.0677C100.555 96.0677 97.0873 95.6397 94.618 94.7838C92.2423 93.8331 90.5801 92.0732 89.6304 89.5053C88.7754 86.9374 88.3479 83.2282 88.3479 78.3778V0.913167H100.318V76.3805C100.318 79.9949 100.698 82.4202 101.458 83.6562C102.217 84.8933 104.26 85.5108 107.586 85.5108H110.293V96.0677H105.021ZM151.798 97.7796C147.712 97.7796 143.676 97.0663 139.686 95.6397C135.695 94.2131 132.037 92.0264 128.713 89.0773C125.482 86.0346 122.87 82.1828 120.875 77.5218C118.88 72.8619 117.883 67.3461 117.883 60.9731C117.883 54.6013 118.88 49.0855 120.875 44.4245C122.87 39.7646 125.482 35.9607 128.713 33.0118C132.037 29.9685 135.695 27.7334 139.686 26.3068C143.676 24.8802 147.712 24.1669 151.798 24.1669C155.883 24.1669 159.921 24.8802 163.911 26.3068C167.996 27.7334 171.653 29.9685 174.884 33.0118C178.208 35.9607 180.821 39.7646 182.721 44.4245C184.716 49.0855 185.714 54.6013 185.714 60.9731C185.714 67.3461 184.716 72.8619 182.721 77.5218C180.821 82.1828 178.208 86.0346 174.884 89.0773C171.653 92.0264 167.996 94.2131 163.911 95.6397C159.921 97.0663 155.883 97.7796 151.798 97.7796ZM151.798 87.2227C155.218 87.2227 158.543 86.32 161.773 84.5122C165.003 82.6108 167.663 79.7575 169.754 75.9525C171.843 72.0539 172.889 67.0607 172.889 60.9731C172.889 54.8867 171.843 49.9414 169.754 46.1364C167.663 42.2378 165.003 39.3846 161.773 37.5768C158.543 35.6754 155.218 34.7235 151.798 34.7235C148.473 34.7235 145.147 35.6754 141.823 37.5768C138.592 39.3846 135.933 42.2378 133.843 46.1364C131.752 49.9414 130.708 54.8867 130.708 60.9731C130.708 67.0607 131.752 72.0539 133.843 75.9525C135.933 79.7575 138.592 82.6108 141.823 84.5122C145.147 86.32 148.473 87.2227 151.798 87.2227ZM230.425 97.7796C226.339 97.7796 222.302 97.0663 218.312 95.6397C214.322 94.2131 210.664 92.0264 207.34 89.0773C204.109 86.0346 201.497 82.1828 199.502 77.5218C197.507 72.8619 196.509 67.3461 196.509 60.9731C196.509 54.6013 197.507 49.0855 199.502 44.4245C201.497 39.7646 204.109 35.9607 207.34 33.0118C210.664 29.9685 214.322 27.7334 218.312 26.3068C222.302 24.8802 226.339 24.1669 230.425 24.1669C234.51 24.1669 238.548 24.8802 242.538 26.3068C246.623 27.7334 250.28 29.9685 253.51 33.0118C256.835 35.9607 259.448 39.7646 261.348 44.4245C263.343 49.0855 264.341 54.6013 264.341 60.9731C264.341 67.3461 263.343 72.8619 261.348 77.5218C259.448 82.1828 256.835 86.0346 253.51 89.0773C250.28 92.0264 246.623 94.2131 242.538 95.6397C238.548 97.0663 234.51 97.7796 230.425 97.7796ZM230.425 87.2227C233.845 87.2227 237.169 86.32 240.4 84.5122C243.63 82.6108 246.29 79.7575 248.38 75.9525C250.47 72.0539 251.515 67.0607 251.515 60.9731C251.515 54.8867 250.47 49.9414 248.38 46.1364C246.29 42.2378 243.63 39.3846 240.4 37.5768C237.169 35.6754 233.845 34.7235 230.425 34.7235C227.1 34.7235 223.774 35.6754 220.45 37.5768C217.219 39.3846 214.559 42.2378 212.47 46.1364C210.379 49.9414 209.335 54.8867 209.335 60.9731C209.335 67.0607 210.379 72.0539 212.47 75.9525C214.559 79.7575 217.219 82.6108 220.45 84.5122C223.774 86.32 227.1 87.2227 230.425 87.2227ZM279.696 96.0677V25.3082H288.532L291.667 36.0075C293.662 32.679 296.369 29.8733 299.789 27.5907C303.304 25.3082 307.674 24.1669 312.9 24.1669C318.315 24.1669 322.684 25.2607 326.01 27.4481C329.334 29.6356 331.757 32.679 333.277 36.5781C336.127 32.2035 339.547 29.0649 343.538 27.1628C347.622 25.1655 352.134 24.1669 357.075 24.1669C365.245 24.1669 371.087 26.6873 374.603 31.7279C378.118 36.674 379.876 43.1885 379.876 51.2722V96.0677H367.905V54.8387C367.905 51.2254 367.525 47.8963 366.765 44.8525C366.1 41.7139 364.675 39.194 362.49 37.2914C360.4 35.39 357.17 34.4385 352.8 34.4385C347.67 34.4385 343.538 36.4355 340.402 40.43C337.362 44.3298 335.842 50.0841 335.842 57.6919V96.0677H323.872V54.8387C323.872 51.2254 323.491 47.8963 322.732 44.8525C322.066 41.7139 320.641 39.194 318.457 37.2914C316.366 35.39 313.137 34.4385 308.767 34.4385C303.637 34.4385 299.504 36.4355 296.369 40.43C293.234 44.3298 291.667 50.0841 291.667 57.6919V96.0677H279.696Z" fill="black"/>
</svg>
